PathFileType	4	(X/Y/Z)	./resultDataOpenSim/trcMotMarkerGrf/sub09/qtm-05-02.trc
DataRate	CameraRate	NumFrames	NumMarkers	Units	OrigDataRate	OrigDataStartFrame	OrigNumFrames
250.000000	250.000000	12	24	m	250.000000	258	514
Frame#	Time	L.Toe.Tip			R.Toe.Tip			L.Ankle.Lat			R.Ankle.Lat			L.Ankle.Med			R.Ankle.Med			L.Heel			R.Heel			L.Knee.Lat			R.Knee.Lat			L.Knee.Med			R.Knee.Med			L.Thigh.Upper			R.Thigh.Upper			L.ASIS			R.ASIS			V.Sacral			L.Acromium			R.Acromium			C7			L.Elbow			R.Elbow			L.Wrist.Lat			R.Wrist.Lat
		X1	Y1	Z1	X2	Y2	Z2	X3	Y3	Z3	X4	Y4	Z4	X5	Y5	Z5	X6	Y6	Z6	X7	Y7	Z7	X8	Y8	Z8	X9	Y9	Z9	X10	Y10	Z10	X11	Y11	Z11	X12	Y12	Z12	X13	Y13	Z13	X14	Y14	Z14	X15	Y15	Z15	X16	Y16	Z16	X17	Y17	Z17	X18	Y18	Z18	X19	Y19	Z19	X20	Y20	Z20	X21	Y21	Z21	X22	Y22	Z22	X23	Y23	Z23	X24	Y24	Z24

258	1.028	0.21892166	-0.059177358	0.067873812	0.5038734	0.10865536	0.16731627	0.075223486	-0.0060009096	0.016097681	0.35257011	0.14588372	0.19248305	0.096365119	0.011736709	0.11140439	0.3872877	0.17223148	0.095583124	0.00082128202	-0.030106556	0.059070904	0.29325082	0.12345677	0.13091707	0.18149501	0.39587177	-0.041657486	0.53670714	0.54120664	0.24069121	0.18177599	0.39815191	0.084727379	0.54086627	0.534336	0.11538213	0.23316986	0.81770048	-0.096146459	0.25126063	0.82680172	0.27523774	0.32812641	0.89808242	-0.037977836	0.3237658	0.90878228	0.2006266	0.1628216	0.96252906	0.083346093	0.35371563	1.3460472	-0.075961244	0.31515782	1.362219	0.25135195	0.2688616	1.4093368	0.079197539	0.22678198	0.98930324	-0.15111533	0.12008162	1.0546609	0.32034084	0.47210985	0.86664307	-0.12640907	0.2122244	0.79876389	0.35429243
259	1.032	0.21895976	-0.059196776	0.067858606	0.52381679	0.1081316	0.16738002	0.07509991	-0.0054013295	0.016698019	0.37203266	0.14109593	0.19188604	0.096794481	0.012245164	0.11173476	0.40543486	0.1686726	0.095537456	0.00096308671	-0.0293039	0.059716905	0.31265555	0.11732112	0.13061438	0.18237791	0.39624184	-0.041607134	0.54400521	0.54285785	0.24085414	0.18304853	0.39849433	0.084627137	0.54810397	0.53560944	0.11564738	0.23790451	0.81751196	-0.095823	0.25695822	0.82660712	0.27567824	0.3336294	0.89756232	-0.037631612	0.32943681	0.90839581	0.2007869	0.16832629	0.9622736	0.083673045	0.3596459	1.345603	-0.075751465	0.32131925	1.3618626	0.25157008	0.27496895	1.4089004	0.079430325	0.23386403	0.98817784	-0.15073145	0.12605358	1.0546547	0.32043788	0.4808511	0.86896395	-0.12544685	0.21636286	0.798345	0.35528483
260	1.036	0.21899584	-0.059222173	0.067862888	0.54370651	0.10766518	0.16759031	0.074992742	-0.004808341	0.017278845	0.39244675	0.13563701	0.19062839	0.097229984	0.01274327	0.11206374	0.42368799	0.16515522	0.095496712	0.0011117046	-0.028501564	0.060373188	0.33232155	0.11138044	0.13013548	0.18328693	0.39658423	-0.041553939	0.55125482	0.54434733	0.24110748	0.18392208	0.39898914	0.084556592	0.55518125	0.53663488	0.11595287	0.24268266	0.81725824	-0.09553917	0.26260433	0.82631931	0.27612137	0.33889004	0.89688064	-0.037478732	0.33512778	0.90792808	0.20097152	0.17405755	0.96193415	0.084431785	0.36558212	1.3451013	-0.075541179	0.32749379	1.3614252	0.25178348	0.28107823	1.4083991	0.07964428	0.2410738	0.98699282	-0.15046699	0.13200353	1.0545689	0.32055736	0.48954449	0.87120175	-0.12449625	0.22050787	0.79784477	0.35623586
261	1.04	0.21903775	-0.059243892	0.067868868	0.56348563	0.10728181	0.16798041	0.074954942	-0.0042416828	0.017780633	0.41322841	0.12987838	0.1889246	0.097672819	0.013237423	0.11237492	0.44208099	0.16169381	0.095439341	0.0012673387	-0.027696303	0.061018671	0.35210892	0.10562229	0.12959282	0.18424193	0.3968891	-0.041500482	0.5584177	0.54565379	0.24141131	0.18456336	0.3994462	0.084613843	0.56215518	0.53742612	0.11625669	0.24745769	0.81693949	-0.095258546	0.26823434	0.82595208	0.27658502	0.34397796	0.89605929	-0.037497392	0.34084146	0.90738313	0.20117989	0.17989314	0.96152318	0.08536529	0.37152786	1.3445434	-0.075331541	0.33369081	1.3609058	0.25199398	0.28720093	1.4078474	0.079849665	0.24830596	0.98575304	-0.15017261	0.13789711	1.0544251	0.32069041	0.49819044	0.87335879	-0.12355741	0.22468839	0.79727158	0.35715544
262	1.044	0.21908918	-0.059256699	0.067872813	0.58313548	0.10699166	0.168564	0.074988858	-0.0037014455	0.018191258	0.4332356	0.1246754	0.18733146	0.098127645	0.01373464	0.11265579	0.46061228	0.15831504	0.095357874	0.0014263417	-0.026887223	0.061628482	0.37197212	0.10003329	0.12904983	0.18527599	0.39715301	-0.041454527	0.56541229	0.54674827	0.24171639	0.18540091	0.39974328	0.084603813	0.56913186	0.53801602	0.11645327	0.25218515	0.81655016	-0.094936195	0.27387256	0.82551684	0.27708008	0.34911653	0.89517695	-0.037538161	0.34657961	0.90676442	0.20141213	0.18569172	0.96105882	0.086171366	0.3774868	1.3439254	-0.075123069	0.33991747	1.3603089	0.25220654	0.29334801	1.4072467	0.080060461	0.25548035	0.98446346	-0.14972886	0.14375173	1.0542264	0.32083697	0.50678817	0.87543571	-0.12262598	0.22894255	0.79663829	0.35805797
263	1.048	0.21914625	-0.059263295	0.067874347	0.60267335	0.10681103	0.16932491	0.075065651	-0.0031694758	0.018535595	0.45187374	0.12068282	0.18631491	0.098595901	0.014230634	0.11290689	0.47925008	0.15504652	0.09525812	0.0015867329	-0.026079484	0.062185466	0.39194334	0.094609134	0.12853747	0.18639471	0.39738001	-0.041431049	0.57214583	0.54759669	0.24199354	0.18657066	0.39992356	0.084393815	0.5762552	0.53845313	0.11639452	0.25685305	0.81608208	-0.094559777	0.2795167	0.82501732	0.27760294	0.35442395	0.89428628	-0.037485451	0.35234732	0.90607332	0.20166722	0.19140311	0.96055116	0.086747605	0.38346279	1.3432438	-0.074915524	0.34617496	1.3596414	0.25242463	0.29952269	1.4065941	0.080286929	0.262597	0.98313002	-0.14913266	0.14965233	1.0539547	0.32101496	0.51534272	0.8774292	-0.12169435	0.23328624	0.79595116	0.35895057
264	1.052	0.21919878	-0.059273093	0.067872376	0.62212806	0.1067637	0.17023492	0.075153783	-0.00262448	0.018859369	0.46979195	0.11776561	0.18587209	0.099060367	0.014708297	0.11313755	0.49795429	0.15191073	0.095150911	0.0017499797	-0.025279563	0.06268094	0.41208957	0.089358029	0.12801937	0.18757937	0.39757376	-0.041441799	0.57860743	0.54819509	0.24222718	0.18790368	0.40008565	0.084098442	0.5835818	0.53876377	0.11602838	0.26148634	0.81553165	-0.094158418	0.28515432	0.82445569	0.27814225	0.35983334	0.89338187	-0.03733543	0.35814796	0.90530845	0.20193543	0.19700989	0.95999497	0.087077428	0.38946043	1.3425012	-0.074707511	0.35245729	1.3589098	0.25264723	0.30572264	1.4058866	0.08053535	0.26970321	0.98175742	-0.14845438	0.15567428	1.0535895	0.32124311	0.52386408	0.87933323	-0.1207569	0.23771163	0.79520737	0.35983173
265	1.056	0.21923889	-0.059293834	0.067866898	0.6415	0.10686997	0.17127518	0.075240365	-0.0020648773	0.019193134	0.48841976	0.11522686	0.18570675	0.09949277	0.015151759	0.11335051	0.51668692	0.14892888	0.095051247	0.0019191506	-0.024486934	0.063108556	0.43246851	0.084298388	0.12738436	0.18883275	0.39773164	-0.041477032	0.58491345	0.54858697	0.24241946	0.18927667	0.40027633	0.083871792	0.59095529	0.53890822	0.11553057	0.26611793	0.81490512	-0.093767523	0.29078038	0.82383494	0.27868768	0.36522799	0.892434	-0.037140451	0.36398139	0.90446731	0.20220285	0.20247959	0.95937516	0.087114287	0.39548324	1.341704	-0.074498353	0.35875539	1.3581185	0.25287115	0.31194332	1.4051215	0.080808168	0.2768369	0.98034253	-0.14776086	0.16181667	1.0531258	0.32152324	0.53235808	0.8811409	-0.11981389	0.24220921	0.79440395	0.36070003
266	1.06	0.21926625	-0.059325903	0.067859064	0.66074006	0.1071377	0.17243566	0.075339826	-0.0015153958	0.019514485	0.50880247	0.1124058	0.18559559	0.099879187	0.015562949	0.11353702	0.53541254	0.14612074	0.094972512	0.0020961769	-0.023696599	0.063462002	0.45307453	0.079454861	0.12654667	0.19018812	0.3978519	-0.041512074	0.59115846	0.54878558	0.24261837	0.19066348	0.40049829	0.083717573	0.59810874	0.53880515	0.11519139	0.27075302	0.81421206	-0.093401479	0.29640128	0.8231556	0.27923385	0.37055591	0.89142114	-0.036943946	0.36984874	0.90355028	0.20246362	0.20782923	0.95868586	0.086897638	0.40153015	1.3408551	-0.07428971	0.36506618	1.3572668	0.25309428	0.31817715	1.4043003	0.081095708	0.28401012	0.97887501	-0.14708543	0.16803271	1.0525734	0.3218469	0.54082344	0.88284679	-0.11886842	0.24678024	0.79354339	0.36155798
267	1.064	0.21928574	-0.059365059	0.067848826	0.67979299	0.10755683	0.17368975	0.075475681	-0.0010008538	0.019770685	0.5301798	0.10912853	0.18554011	0.10023238	0.015960582	0.11368755	0.55409465	0.14349912	0.094913665	0.0022819954	-0.022904953	0.063738586	0.47378558	0.074856593	0.12555655	0.19168343	0.39793985	-0.04153297	0.59729503	0.5487317	0.24289668	0.1920475	0.40072041	0.083553509	0.60489289	0.53841104	0.11516276	0.27538083	0.81345318	-0.093086603	0.30203367	0.82241684	0.27978047	0.37582813	0.89033967	-0.036763745	0.37575137	0.9025637	0.20271837	0.21317965	0.95794148	0.08666269	0.40759634	1.3399514	-0.07408436	0.37139499	1.3563497	0.2533162	0.32441919	1.4034261	0.081375598	0.29122377	0.97734768	-0.14643285	0.17428562	1.0519486	0.32220644	0.54925636	0.88445052	-0.11792242	0.25142831	0.79262892	0.36240605
268	1.068	0.21930418	-0.059407254	0.067835549	0.69864633	0.10810865	0.17497995	0.075655959	-0.0005201159	0.019934599	0.54990789	0.10585616	0.18570329	0.10058277	0.016360735	0.11379638	0.57269488	0.14107738	0.094862563	0.0024787224	-0.022109186	0.063939606	0.49438942	0.070534151	0.12457918	0.19335128	0.398	-0.041542168	0.60324095	0.54837737	0.24326073	0.19348256	0.40085276	0.083349836	0.61134047	0.5377551	0.1153889	0.28002568	0.81262281	-0.092906475	0.30770056	0.82162173	0.28033038	0.38107122	0.88919856	-0.03659947	0.3816887	0.90151711	0.20296306	0.21866533	0.95716196	0.086668067	0.41367893	1.3389895	-0.073883769	0.37774768	1.355363	0.25353608	0.3306787	1.402501	0.081629863	0.29847809	0.97576556	-0.14579569	0.18056244	1.0512607	0.32259581	0.55765397	0.8859567	-0.11697751	0.25615202	0.79166168	0.36324069
269	1.072	0.21932841	-0.059450385	0.067820949	0.71730703	0.10878154	0.17624459	0.075874781	-5.361651e-05	0.020016591	0.56613291	0.10329555	0.18623839	0.10095803	0.016759846	0.11385434	0.59118287	0.13887685	0.094811504	0.0026876782	-0.021307099	0.064064248	0.5147087	0.066511655	0.1237662	0.19520902	0.39803336	-0.041544998	0.60900278	0.54775248	0.24363135	0.19509919	0.40080672	0.083166365	0.61755701	0.53689817	0.11573893	0.28475175	0.81172816	-0.092925404	0.31342083	0.82077637	0.28088557	0.38629748	0.88800737	-0.036443976	0.38766171	0.9004185	0.20318899	0.22430974	0.95635379	0.08696116	0.41977971	1.3379718	-0.073687407	0.38412631	1.3543073	0.25375192	0.33697708	1.4015328	0.08186076	0.30577028	0.97414299	-0.14516873	0.18686132	1.0505067	0.32301106	0.56601606	0.8873693	-0.11603521	0.26095275	0.79064561	0.36406092
